<svg width="101" height="101" viewBox="0 0 101 101" fill="none" xmlns="http://www.w3.org/2000/svg">
<g clip-path="url(#clip0_10_664)">
<path d="M50.4968 100.994C78.3853 100.994 100.994 78.3854 100.994 50.4968C100.994 22.6082 78.3853 0 50.4968 0C22.6082 0 0 22.6082 0 50.4968C0 78.3854 22.6082 100.994 50.4968 100.994Z" fill="url(#paint0_linear_10_664)"/>
<g style="mix-blend-mode:multiply" opacity="0.2">
<path d="M57.7895 95.6809C47.5415 95.6828 37.5356 92.5662 29.1016 86.7451C20.6674 80.924 14.2044 72.6743 10.5714 63.0918C6.9383 53.5097 6.30732 43.0487 8.7622 33.0991C11.2171 23.1496 16.6416 14.1827 24.3148 7.39008C18.3168 11.027 13.1422 15.8737 9.12104 21.6212C5.09986 27.3688 2.32024 33.8911 0.959388 40.7722C-0.401459 47.6535 -0.313711 54.7428 1.21707 61.5883C2.74784 68.4339 5.68808 74.8853 9.85032 80.5314C14.0125 86.1778 19.3055 90.8949 25.3918 94.3821C31.478 97.8695 38.224 100.05 45.1999 100.786C52.1758 101.522 59.2285 100.796 65.9083 98.6551C72.5882 96.514 78.7486 93.0049 83.9972 88.3512C76.1016 93.1583 67.0332 95.6945 57.7895 95.6809Z" fill="#222226"/>
</g>
<g style="mix-blend-mode:overlay" opacity="0.5">
<path d="M88.2982 83.5273C94.3874 76.6385 98.4792 68.2173 100.132 59.1727C101.785 50.1284 100.936 40.8043 97.6768 32.207C94.418 23.61 88.8728 16.0662 81.6396 10.3901C74.4067 4.71413 65.7608 1.1215 56.6355 6.10352e-05C49.7608 0.891129 43.1775 3.32736 37.379 7.12598C31.5808 10.9246 26.7177 15.987 23.1552 21.9333C19.5926 27.8795 17.4228 34.5557 16.8086 41.4603C16.1944 48.3649 17.1517 55.3189 19.6088 61.8008C22.0659 68.2825 25.9589 74.1239 30.9958 78.8864C36.0328 83.6486 42.0827 87.2088 48.6918 89.2993C55.3009 91.3898 62.2979 91.9563 69.1571 90.9567C76.0166 89.9571 82.5606 87.4172 88.2982 83.5273Z" fill="white"/>
</g>
<mask id="mask0_10_664" style="mask-type:alpha" maskUnits="userSpaceOnUse" x="0" y="0" width="101" height="101">
<path d="M50.8471 100.654C78.4712 100.654 100.865 78.2606 100.865 50.6365C100.865 23.0125 78.4712 0.618835 50.8471 0.618835C23.223 0.618835 0.829285 23.0125 0.829285 50.6365C0.829285 78.2606 23.223 100.654 50.8471 100.654Z" fill="white"/>
</mask>
<g mask="url(#mask0_10_664)">
<g style="mix-blend-mode:multiply" opacity="0.5">
<path d="M-7.2588 18.1963C23.2145 20.048 53.7511 15.8015 82.563 5.70538C48.9316 31.0863 -0.750595 37.7507 -44.6449 28.9669C-34.1329 33.5186 -22.0098 34.5334 -10.2039 34.9623C26.7804 36.3122 66.1733 31.9563 95.1521 12.5103C91.5501 23.549 78.4512 30.1437 66.2047 35.0676C49.3858 41.837 31.8703 47.6797 13.4994 50.3196C-4.87156 52.9595 -24.2259 52.2611 -41.4693 46.3055C-1.33213 61.1515 45.6661 56.5386 86.6612 43.4644C53.3644 61.1472 12.6644 68.6634 -26.3368 64.3314C4.12318 69.2136 37.0952 72.7368 64.9159 61.1854C42.9428 71.4855 17.344 76.1906 -7.7124 74.5444C13.314 77.9926 34.8081 77.3534 55.5923 72.6615C37.7419 82.4742 14.9347 82.2233 -6.35512 81.6334C27.7298 89.1784 65.9299 81.8987 92.8716 62.7282C90.5829 77.8445 73.8082 88.0712 57.8932 95.2635C47.5343 99.9448 36.7627 104.2 25.2722 106.265C5.79074 109.765 -15.5762 106.428 -31.4301 96.253C-47.2842 86.0782 -56.9281 68.9474 -54.8401 52.2271C-53.4473 41.0602 -48.366 24.9843 -35.2248 20.1504C-25.4772 16.5643 -17.3768 17.585 -7.2588 18.1963Z" fill="#51BCB7"/>
</g>
<g style="mix-blend-mode:multiply" opacity="0.2">
<path d="M93.9869 11.0039C83.4438 7.63433 72.9239 5.45249 61.6047 7.13235C51.712 8.6014 42.5659 12.5402 32.3168 12.5911C28.6617 12.6091 -12.8921 14.0379 -12.7295 12.2408C-12.8387 13.463 -11.3392 14.3734 -9.97606 15.01C2.24873 20.6852 16.7941 23.0065 31.0644 22.7071C45.3349 22.4077 59.3596 19.5902 72.652 15.5825C53.8471 27.4941 29.3482 33.9461 5.01444 33.3997C32.8152 36.0631 62.2814 35.9031 87.2672 26.1373C82.4819 30.2142 76.9926 33.3858 71.0686 35.4964C65.0996 37.67 58.6377 38.9208 52.1761 39.9634C39.5202 42.0045 26.7557 43.3049 13.9479 43.8577C41.6386 46.4506 70.6803 45.7158 96.0651 36.8038C79.0365 44.8897 61.7501 51.9209 42.0402 55.2953C50.9402 53.7712 61.0792 53.636 70.0799 53.1479C80.2626 52.5975 90.7424 50.2312 100.288 47.5597C91.704 56.3363 78.148 61.4782 64.3795 64.3343C50.6108 67.1903 36.2954 68.0483 22.2714 70.0416C35.5743 72.6206 49.6362 72.0536 63.0647 69.8997C76.4934 67.7458 89.4087 64.0505 102.265 60.3686C93.2257 67.216 81.4204 71.5732 69.2326 74.247C57.0448 76.9211 44.3781 78.0094 31.7805 79.0864C38.3032 83.1056 47.3057 83.5922 55.6545 83.3936C67.522 83.1155 79.3419 81.7979 90.9789 79.4562C70.9063 89.5132 45.959 93.6326 22.3018 90.7987C30.4108 94.8424 40.7232 95.146 50.335 94.3954C65.8533 93.2259 81.0775 89.5397 95.4099 83.4821C101.987 80.6605 108.283 77.2968 113.166 72.8821C117.439 68.9629 120.821 64.1745 123.085 58.8397C128.176 47.1512 127.758 33.2784 117.881 23.5798C111.857 17.6716 102.998 13.8821 93.9869 11.0039Z" fill="#51BCB7"/>
</g>
</g>
</g>
<defs>
<linearGradient id="paint0_linear_10_664" x1="0" y1="50.4968" x2="100.994" y2="50.4968" gradientUnits="userSpaceOnUse">
<stop stop-color="#71FFFB"/>
<stop offset="0.997" stop-color="#0068FB"/>
</linearGradient>
<clipPath id="clip0_10_664">
<rect width="101" height="101" fill="white"/>
</clipPath>
</defs>
</svg>
