<svg width="31" height="31" viewBox="0 0 31 31" fill="none" xmlns="http://www.w3.org/2000/svg">
<path d="M10.075 10.075C10.8316 9.31835 12.0584 9.31835 12.815 10.075L15.5 12.7599L18.1849 10.075C18.9415 9.31835 20.1683 9.31835 20.925 10.075C21.6816 10.8316 21.6816 12.0584 20.925 12.8151L18.24 15.5L20.925 18.1849C21.6816 18.9416 21.6816 20.1683 20.925 20.925C20.1683 21.6817 18.9415 21.6817 18.1849 20.925L15.5 18.2401L12.815 20.925C12.7204 21.0195 12.6184 21.1023 12.511 21.1733C11.759 21.6698 10.737 21.587 10.075 20.925C9.31834 20.1683 9.31834 18.9416 10.075 18.1849L12.76 15.5L10.075 12.8151C9.31833 12.0584 9.31833 10.8316 10.075 10.075Z" fill="black"/>
<path fill-rule="evenodd" clip-rule="evenodd" d="M31 15.5C31 24.0603 24.0604 31 15.5 31C6.93958 31 0 24.0603 0 15.5C0 6.93958 6.93958 0 15.5 0C24.0604 0 31 6.93958 31 15.5ZM27.125 15.5C27.125 21.9203 21.9203 27.125 15.5 27.125C9.07967 27.125 3.87499 21.9203 3.87499 15.5C3.87499 9.0797 9.07967 3.875 15.5 3.875C21.9203 3.875 27.125 9.0797 27.125 15.5Z" fill="black"/>
</svg>
