<svg width="42" height="42" viewBox="0 0 42 42" fill="none" xmlns="http://www.w3.org/2000/svg">
<path fill-rule="evenodd" clip-rule="evenodd" d="M20.9999 28.1591C25.0557 28.1591 28.3434 24.9539 28.3434 21C28.3434 17.0461 25.0557 13.8409 20.9999 13.8409C16.9444 13.8409 13.6566 17.0461 13.6566 21C13.6566 24.9539 16.9444 28.1591 20.9999 28.1591ZM20.9999 23.3864C22.3519 23.3864 23.4478 22.318 23.4478 21C23.4478 19.682 22.3519 18.6136 20.9999 18.6136C19.6482 18.6136 18.5521 19.682 18.5521 21C18.5521 22.318 19.6482 23.3864 20.9999 23.3864Z" fill="black"/>
<path fill-rule="evenodd" clip-rule="evenodd" d="M27.1057 1.65115L27.8931 7.28139C28.5339 7.58795 29.1499 7.9359 29.7378 8.32169L35.1351 6.17062C36.0416 5.80936 37.0824 6.15644 37.5722 6.98321L41.7375 14.0168C42.2271 14.8436 42.015 15.8959 41.2409 16.4805L36.6304 19.9626C36.6539 20.3055 36.6659 20.6514 36.6659 21C36.6659 21.3486 36.6539 21.6945 36.6304 22.0374L41.2409 25.5194C42.015 26.1041 42.2271 27.1564 41.7375 27.9833L37.5722 35.0167C37.0824 35.8436 36.0416 36.1906 35.1351 35.8294L29.7378 33.6783C29.1499 34.0641 28.5339 34.4121 27.8931 34.7185L27.1057 40.3488C26.9733 41.2948 26.1446 42 25.1653 42H16.8346C15.8553 42 15.0266 41.2948 14.8943 40.3488L14.1068 34.7185C13.4661 34.4121 12.85 34.0641 12.2622 33.6783L6.86479 35.8294C5.95836 36.1906 4.91753 35.8436 4.42789 35.0167L0.262506 27.9833C-0.227135 27.1564 -0.0150365 26.1041 0.759098 25.5194L5.36959 22.0374C5.346 21.6945 5.33403 21.3486 5.33403 21C5.33403 20.6514 5.346 20.3055 5.36959 19.9626L0.759098 16.4805C-0.0150365 15.8959 -0.227134 14.8436 0.262486 14.0168L4.42789 6.98321C4.91751 6.15644 5.95834 5.80936 6.86479 6.17062L12.2622 8.32169C12.85 7.9359 13.4661 7.58795 14.1068 7.28139L14.8943 1.65115C15.0266 0.705218 15.8553 0 16.8346 0H25.1653C26.1446 0 26.9733 0.705218 27.1057 1.65115ZM23.3948 10.4456L25.7363 11.5659C26.1759 11.7763 26.5993 12.0154 27.0039 12.2808L29.1715 13.7035L34.6144 11.5343L36.2157 14.2384L31.5713 17.7461L31.7458 20.282C31.762 20.5187 31.7703 20.7579 31.7703 21C31.7703 21.2421 31.762 21.4815 31.7458 21.718L31.5713 24.2539L36.2157 27.7616L34.6144 30.4657L29.1715 28.2965L27.0039 29.7192C26.5993 29.9846 26.1759 30.2238 25.7363 30.4342L23.3948 31.5544L22.6014 37.2273H19.3987L18.6052 31.5544L16.2637 30.4342C15.824 30.2238 15.4007 29.9846 14.9962 29.7192L12.8285 28.2965L7.38563 30.4657L5.78423 27.7616L10.4287 24.2539L10.2542 21.718C10.238 21.4813 10.2296 21.2421 10.2296 21C10.2296 20.7579 10.238 20.5187 10.2542 20.282L10.4287 17.7461L5.78421 14.2384L7.38561 11.5343L12.8285 13.7035L14.9962 12.2808C15.4006 12.0154 15.824 11.7763 16.2637 11.5659L18.6052 10.4456L19.3987 4.77273H22.6014L23.3948 10.4456Z" fill="black"/>
</svg>
