<svg width="101" height="101" viewBox="0 0 101 101" fill="none" xmlns="http://www.w3.org/2000/svg">
<g id="Jupiter 1" clip-path="url(#clip0_59_66)">
<g id="Group">
<path id="Vector" d="M50.496 100.992C78.3842 100.992 100.992 78.3843 100.992 50.496C100.992 22.6079 78.3842 0 50.496 0C22.6079 0 0 22.6079 0 50.496C0 78.3843 22.6079 100.992 50.496 100.992Z" fill="url(#paint0_linear_59_66)"/>
<g id="Group_2" style="mix-blend-mode:multiply" opacity="0.2">
<path id="Vector_2" d="M57.5628 97.869C46.3316 97.8671 35.4215 94.1224 26.5566 87.2263C17.6918 80.3305 11.378 70.6767 8.61325 59.7912C5.8485 48.9056 6.79043 37.409 11.2902 27.1188C15.79 16.8284 23.591 8.33124 33.46 2.97028C26.9107 5.31941 20.9173 8.99626 15.8557 13.7704C10.794 18.5444 6.77321 24.3127 4.04541 30.7136C1.31763 37.1145 -0.0583324 44.0098 0.00378312 50.9676C0.0658984 57.9251 1.56476 64.795 4.40641 71.1462C7.24804 77.4972 11.3712 83.193 16.5173 87.8759C21.6634 92.5587 27.7213 96.1279 34.3116 98.3598C40.9018 100.592 47.8823 101.438 54.8148 100.846C61.7474 100.253 68.4828 98.2348 74.5989 94.9173C69.1327 96.875 63.3693 97.8735 57.5628 97.869Z" fill="#222226"/>
</g>
<g id="Group_3" style="mix-blend-mode:overlay" opacity="0.2">
<path id="Vector_3" d="M50.4973 0.0158105C43.8377 0.0082217 37.2429 1.3222 31.095 3.8816C23.1744 12.299 18.3805 23.1783 17.5133 34.7038C16.6461 46.2292 19.7582 57.7034 26.3301 67.2111C32.9021 76.719 42.5361 83.685 53.6244 86.9467C64.7126 90.2083 76.584 89.5681 87.2573 85.1332C94.0185 77.9571 98.5311 68.9585 100.238 59.2476C101.944 49.5369 100.771 39.5387 96.8614 30.4871C92.9519 21.4357 86.4781 13.7268 78.2386 8.31173C69.9991 2.89669 60.3544 0.0124657 50.4947 0.0149552L50.4973 0.0158105Z" fill="white"/>
</g>
<g id="Group_4" style="mix-blend-mode:multiply" opacity="0.8">
<path id="Vector_4" d="M50.963 0.110535C41.4775 0.110535 34.579 1.83518 27.2493 5.71564C22.0753 7.87146 16.039 13.4766 14.8407 14.8647C15.2209 16.2566 16.0021 17.461 17.0572 18.2821C18.3809 19.3734 19.9347 20.0433 21.5596 20.2233C23.1846 20.4033 24.8223 20.0869 26.3049 19.3065C28.3462 18.1972 30.7011 16.1968 32.5608 17.6644C33.8005 18.642 33.9807 20.6962 35.0388 21.9207C36.6994 23.8425 39.7087 22.7994 41.2745 20.7788C42.84 18.7581 43.5523 16.0597 44.8812 13.8279C48.1438 8.34856 54.4823 6.56939 60.2752 6.17444C62.0257 6.05525 63.848 6.03735 65.4486 6.85448C67.0491 7.67165 68.3651 9.54432 68.1631 11.533C67.863 14.5041 64.5672 16.1789 64.2663 19.1507C64.0492 21.2944 65.5844 23.2543 67.3527 24.0193C69.121 24.7843 71.0735 24.6425 72.9627 24.5693C76.2332 24.4376 79.6553 24.5607 82.5417 26.3212C85.4282 28.0817 87.5787 31.9393 86.7101 35.5419C85.8963 38.9211 82.8365 40.9333 79.8764 41.861C76.916 42.7887 73.7539 43.0249 71.0129 44.6001C67.5013 46.6153 65.0214 50.64 61.3251 52.1756C59.2525 53.0362 56.9677 53.0325 54.8786 53.8418C52.7898 54.6512 50.7717 56.7714 51.0486 59.2712C51.3516 62.0116 54.2306 63.4411 56.639 63.1662C59.0473 62.8912 61.2488 61.5085 63.6181 60.9492C67.3218 60.0728 71.1574 61.2653 74.6831 62.8311C76.818 63.7783 78.969 64.9182 80.5074 66.8545C82.0458 68.7912 82.8421 71.7076 81.902 74.0937C80.7708 76.9674 77.6762 78.0556 74.9186 78.2168C72.1611 78.3781 69.282 77.9659 66.7318 79.1749C64.1815 80.384 62.2652 84.1338 63.8357 86.7264C65.0241 88.6879 67.4808 88.9262 69.5508 88.596C71.6207 88.2657 73.7765 87.5793 75.7468 88.3756C77.5159 89.0898 79.0652 90.9679 80.9154 90.6096C81.902 90.2991 82.7879 89.6672 83.4648 88.7908C87.8565 84.0903 92.0852 80.5734 94.754 74.414C98.5098 69.0805 101.089 56.0855 100.867 46.6257C100.718 40.2226 97.5636 32.5736 95.0578 26.8425C92.8653 21.8236 89.1299 17.9452 85.4561 14.2224C83.6892 12.4308 78.2317 8.14985 76.0158 7.21429C72.7362 5.82848 73.4882 6.18521 70.3013 4.54233C66.7278 2.69927 63.7895 2.0236 59.5863 0.972839C56.1372 0.110535 53.1189 0.110535 50.963 0.110535Z" fill="url(#paint1_linear_59_66)"/>
</g>
<g id="Group_5" style="mix-blend-mode:multiply" opacity="0.8">
<path id="Vector_5" d="M39.1077 32.4581C37.9797 32.8784 36.8079 33.1766 35.6134 33.3471C33.2426 33.6643 30.7707 33.3508 28.4929 34.0677C26.8136 34.5965 25.3662 35.6485 23.7897 36.422C16.4845 40.0022 14.2408 31.4228 7.91556 31.0107C5.55259 30.8584 3.71665 32.0288 2.67289 34.1062C2.54119 35.0347 1.81057 36.7595 1.3794 38.9152L0.99217 41.9554C0.900898 42.6685 0.952161 43.3926 1.14312 44.0868C1.42429 44.8926 2.06237 45.5219 2.54119 46.2332C4.3854 48.9735 3.72866 52.5767 3.08122 55.7964C2.43382 59.0163 1.9773 62.7071 4.08452 65.2596C5.03074 66.4059 6.37901 67.1525 7.69405 67.8725C9.26694 68.7353 11.0836 69.6213 12.7935 69.0626C13.9202 68.6936 14.7503 67.7603 15.7893 67.1955C16.9823 66.6082 18.3632 66.5016 19.6355 66.8989C20.9078 67.2965 21.9702 68.1659 22.5945 69.3207C23.0859 70.4496 23.2695 71.6841 23.1272 72.903C22.9571 75.1486 22.2101 77.3139 21.8973 79.5442C21.5844 81.7745 21.7738 84.2337 23.2351 85.9732C25.0326 88.1142 28.3736 88.5508 31.0214 87.5697C33.6689 86.5888 35.7094 84.4574 37.2927 82.1608C38.4374 80.4997 39.638 78.5454 41.6503 78.1676C43.0938 77.8964 44.8297 78.4759 45.9082 77.498C46.5884 76.8821 46.6936 75.8767 46.6862 74.9695C46.6604 72.0932 46.0119 68.9306 47.6651 66.5515C49.5846 63.7879 47.2547 58.8737 50.1008 57.0239C50.7663 56.591 54.3952 53.1094 53.5499 51.4189C52.2566 48.8319 48.6259 49.5007 47.0825 49.2632C41.0464 49.2632 41.9086 57.2742 38.1621 58.3967C35.5164 59.1892 32.8566 60.2901 30.0999 60.0656C29.3798 60.0068 28.5764 59.7936 28.2369 59.1694C28.0365 58.7051 28.0147 58.1851 28.1753 57.706C28.4339 56.6957 28.9245 55.7566 29.6105 54.96C30.2963 54.1635 31.1588 53.5305 32.1324 53.1094C33.422 52.5644 34.882 52.4035 36.0714 51.6703C37.261 50.9369 38.0494 49.2533 37.1645 48.1856C36.4496 47.3228 35.1315 47.3623 34.0051 47.2269C32.879 47.0914 31.541 46.3171 31.7874 45.2341C31.891 44.8849 32.0949 44.572 32.3748 44.3329C34.874 41.931 38.9241 42.5413 42.3812 41.9869C45.9143 41.4204 49.9389 38.4503 52.6614 36.3499C54.0621 35.268 57.3303 32.8814 57.3521 30.9835C57.3842 27.8426 52.9426 27.4261 50.7009 27.837C46.5924 28.5841 42.9984 31.0524 39.1077 32.4581Z" fill="url(#paint2_linear_59_66)"/>
</g>
</g>
</g>
<defs>
<linearGradient id="paint0_linear_59_66" x1="0" y1="50.496" x2="100.992" y2="50.496" gradientUnits="userSpaceOnUse">
<stop stop-color="#FFEBC5"/>
<stop offset="1" stop-color="#D28E27"/>
</linearGradient>
<linearGradient id="paint1_linear_59_66" x1="57.8605" y1="0.110535" x2="57.8605" y2="90.6545" gradientUnits="userSpaceOnUse">
<stop stop-color="#FFA723"/>
<stop offset="1" stop-color="#74490A" stop-opacity="0"/>
</linearGradient>
<linearGradient id="paint2_linear_59_66" x1="29.1502" y1="27.705" x2="29.1502" y2="88.0677" gradientUnits="userSpaceOnUse">
<stop stop-color="#FFA723"/>
<stop offset="1" stop-color="#74490A" stop-opacity="0"/>
</linearGradient>
<clipPath id="clip0_59_66">
<rect width="101" height="101" fill="white"/>
</clipPath>
</defs>
</svg>
