<svg width="101" height="101" viewBox="0 0 101 101" fill="none" xmlns="http://www.w3.org/2000/svg">
<g id="Mars 1" clip-path="url(#clip0_59_77)">
<g id="Group">
<path id="Vector" d="M50.8078 101C78.5283 101 101 78.5283 101 50.8081C101 23.0877 78.5283 0.615967 50.8078 0.615967C23.0876 0.615967 0.615845 23.0877 0.615845 50.8081C0.615845 78.5283 23.0876 101 50.8078 101Z" fill="url(#paint0_linear_59_77)"/>
<g id="Group_2" style="mix-blend-mode:multiply" opacity="0.5">
<path id="Vector_2" d="M27.2934 19.4483C26.8439 21.7088 27.0728 24.7559 28.9931 25.4358C29.5356 25.5514 30.0932 25.5345 30.6298 25.386C31.1665 25.2376 31.6701 24.9609 32.1087 24.5738C34.6066 22.7868 36.6085 20.1792 39.1316 18.4456C41.6548 16.712 45.1318 16.0443 47.3817 18.2246C49.8756 20.6526 49.592 25.2488 48.2538 28.6821C46.9698 31.1545 45.9986 33.8264 45.3692 36.6168C45.2262 37.7881 45.3059 38.9817 45.6031 40.1141C45.9005 41.2462 46.4076 42.2899 47.0899 43.1721C47.7855 44.0413 48.6597 44.6935 49.6311 45.0687C50.6028 45.4438 51.6408 45.5299 52.6486 45.3185C54.1543 44.8531 55.5407 43.9753 56.6908 42.7596C59.0464 40.5413 61.1419 37.9776 62.924 35.1333C66.1699 29.9494 68.9346 23.355 74.3022 21.7792C76.0426 21.3268 77.8574 21.4371 79.5473 22.098C81.2372 22.7588 82.7368 23.9447 83.8821 25.5256C84.9955 27.1356 85.7593 29.0297 86.1102 31.0505C86.461 33.0711 86.3887 35.1595 85.8989 37.141C85.6387 38.4275 85.0733 39.6045 84.2667 40.5403C83.3013 41.4196 82.1672 42.0176 80.9597 42.2834C76.4187 43.2266 71.9691 44.6855 67.6761 46.6393C66.8742 46.985 66.1454 47.5242 65.5378 48.2208C64.9305 48.9174 64.4582 49.7556 64.1531 50.6795C63.9386 52.5729 64.3242 54.4919 65.2391 56.082C65.8953 57.9085 66.9667 59.4957 68.34 60.6756C71.092 62.6349 74.6424 61.0545 77.5523 59.4494L93.6679 50.5994C94.7747 50.1323 95.7427 49.3094 96.4579 48.2272C96.9034 47.2295 97.1314 46.1209 97.1218 44.9981C97.5019 40.3701 97.2896 35.7027 96.4914 31.1465C95.6754 26.5642 93.6145 22.4028 90.6092 19.2687C87.0351 16.1457 82.753 14.29 78.2835 13.9271C73.8717 13.308 69.3758 13.3638 64.9914 12.4703C63.3472 12.237 61.7684 11.5843 60.3693 10.5595C59.2418 9.46934 58.2132 8.24901 57.2999 6.91749C47.7727 -4.90197 29.9887 5.88072 27.2934 19.4483Z" fill="#D16111"/>
</g>
<g id="Group_3" style="mix-blend-mode:multiply" opacity="0.5">
<path id="Vector_3" d="M66.521 36.6437C66.6223 37.1931 66.8766 37.6922 67.2477 38.0687C67.6187 38.4452 68.087 38.6792 68.5846 38.7372C68.9397 38.8126 69.3036 38.8187 69.6603 38.7562C71.9681 38.3898 74.0795 37.0996 75.6046 35.1236C76.0995 34.3539 76.3659 33.4288 76.3659 32.4797C76.3659 31.5307 76.0995 30.6056 75.6046 29.8358C75.3006 29.3888 74.8671 29.0751 74.3788 28.9482C73.8932 28.9236 73.4111 29.0492 72.985 29.3111C72.5587 29.5729 72.2049 29.9609 71.962 30.433C71.4878 31.3816 70.8948 32.2489 70.2014 33.0091C69.4963 33.4978 68.7417 33.8908 67.9539 34.1799C67.5026 34.3496 67.1153 34.6854 66.8554 35.1325C66.5954 35.5795 66.4774 36.112 66.521 36.6437Z" fill="#D16111"/>
</g>
<g id="Group_4" style="mix-blend-mode:multiply" opacity="0.5">
<path id="Vector_4" d="M32.3742 33.9863C31.5622 35.7722 31.2499 37.8269 31.4844 39.8445C31.6563 40.8209 32.0346 41.7288 32.1781 42.7075C32.3904 44.1501 32.1558 45.8808 33.056 46.8571C33.3582 47.1497 33.7207 47.3367 34.1048 47.3984C34.4889 47.4599 34.8796 47.3933 35.2344 47.206C35.9414 46.8159 36.5384 46.1846 36.9517 45.3899C37.8721 43.7702 38.3205 41.8271 38.2259 39.8664C37.9726 38.3942 37.9348 36.88 38.1147 35.3922C38.6912 33.8895 39.5718 32.5862 40.6754 31.6015C42.5928 29.3413 43.9563 22.9171 39.6175 24.1814C36.4661 25.1138 33.6343 30.7425 32.3742 33.9863Z" fill="#D16111"/>
</g>
<g id="Group_5" style="mix-blend-mode:multiply" opacity="0.5">
<path id="Vector_5" d="M25.7802 32.6473C26.7887 34.7244 27.2155 37.1124 27.0021 39.4821C26.6074 42.3481 24.825 45.1632 25.6647 47.8983C26.0699 49.2123 27.0271 50.2106 27.4805 51.5027C28.4589 54.2789 26.8907 57.2808 25.6206 59.8919C23.4003 63.7609 22.597 68.491 23.387 73.0443C24.4954 77.4504 28.9775 80.8579 32.5523 78.8737C35.9467 76.9865 36.6816 71.5531 35.4912 67.419C34.1771 62.8455 31.3914 56.3579 36.9355 53.7397C40.7836 51.9228 44.8749 54.9055 46.6822 58.7333C47.2361 60.4009 48.2158 61.8336 49.4911 62.8407C52.3167 64.4436 55.5641 60.8223 58.6502 61.5389C63.8246 62.7386 64.0704 71.8638 64.8952 76.4278C65.1647 77.6505 65.2939 78.909 65.2795 80.1707C65.036 85.0406 60.8185 88.186 56.9664 90.1825C52.7595 92.3482 48.4067 94.1127 43.9512 95.458C39.8017 97.2934 35.2958 97.7722 30.9268 96.8427C26.5577 95.9131 22.4939 93.6106 19.1802 90.1873C15.4016 86.9182 11.6671 82.9883 10.3445 77.7395C9.44578 73.2319 9.78708 68.5119 11.3207 64.2397C12.2788 61.739 12.9438 59.1012 13.2981 56.3967C13.3105 53.2769 12.7734 50.1871 11.7195 47.3152C9.83022 41.0391 9.41038 34.6705 13.8545 29.6039C17.9249 24.972 23.4291 27.209 25.7802 32.6473Z" fill="#D16111"/>
</g>
<g id="Group_6" style="mix-blend-mode:multiply" opacity="0.5">
<path id="Vector_6" d="M58.5037 53.1843C58.6364 50.0923 53.4168 49.2191 51.779 50.3715C48.2924 52.8265 50.0375 57.3173 53.6169 57.2716C54.7178 57.3074 55.807 56.9929 56.775 56.3602C57.254 56.0379 57.6614 55.5808 57.9623 55.0279C58.2632 54.4748 58.449 53.8424 58.5037 53.1843Z" fill="#D16111"/>
</g>
<g id="Group_7" style="mix-blend-mode:multiply" opacity="0.2">
<path id="Vector_7" d="M57.3324 94.6033C47.6066 94.6151 38.0842 91.8322 29.909 86.5891C21.734 81.3459 15.2537 73.8652 11.2466 65.0456C7.23955 56.226 5.87618 46.4426 7.32016 36.8706C8.76417 27.2986 12.9542 18.345 19.3869 11.0853C13.8409 15.4066 9.26359 20.8337 5.9485 27.0186C2.63343 33.2036 0.653778 40.0096 0.136504 47.0005C-0.38077 53.9914 0.575684 61.0128 2.94468 67.6144C5.31366 74.216 9.04285 80.2517 13.893 85.3351C18.7431 90.4182 24.6072 94.4363 31.1091 97.1318C37.6111 99.8275 44.6072 101.141 51.649 100.988C58.6908 100.835 65.6229 99.2191 72.0002 96.2439C78.3779 93.2684 84.0602 88.9994 88.6831 83.7106C79.7717 90.7664 68.7199 94.6063 57.3324 94.6033Z" fill="#222226"/>
</g>
<g id="Group_8" style="mix-blend-mode:overlay" opacity="0.39">
<path id="Vector_8" d="M50.6722 6.5423e-06C42.7087 0.000993306 34.8604 1.91284 27.779 5.57678C20.32 14.5177 16.1644 25.7775 16.0163 37.4478C15.8682 49.1178 19.7367 60.4806 26.9665 69.6101C34.196 78.7397 44.3419 85.0743 55.6848 87.5405C67.0276 90.0068 78.8693 88.4527 89.2029 83.1422C95.3682 75.766 99.3104 66.7725 100.566 57.2197C101.822 47.6669 100.339 37.952 96.291 29.2181C92.2436 20.4842 85.8 13.0945 77.7185 7.91837C69.6369 2.74226 60.2534 -0.004893 50.6722 6.5423e-06Z" fill="white"/>
</g>
</g>
</g>
<defs>
<linearGradient id="paint0_linear_59_77" x1="0.615845" y1="50.8081" x2="101" y2="50.8081" gradientUnits="userSpaceOnUse">
<stop stop-color="#FFA000"/>
<stop offset="1" stop-color="#FF3D00"/>
</linearGradient>
<clipPath id="clip0_59_77">
<rect width="101" height="101" fill="white"/>
</clipPath>
</defs>
</svg>
