<svg width="101" height="101" viewBox="0 0 101 101" fill="none" xmlns="http://www.w3.org/2000/svg">
<g id="Mercury 1" clip-path="url(#clip0_59_124)">
<g id="Group">
<path id="Vector" d="M50.5 101.001C78.3904 101.001 101 78.3912 101 50.501C101 22.611 78.3904 0.00158691 50.5 0.00158691C22.6096 0.00158691 0 22.611 0 50.501C0 78.3912 22.6096 101.001 50.5 101.001Z" fill="url(#paint0_linear_59_124)"/>
<g id="Group_2" style="mix-blend-mode:multiply" opacity="0.11">
<path id="Vector_2" d="M19.1989 37.6064C21.6325 38.808 23.8265 40.7741 26.6661 41.4469C30.2583 42.2279 33.9392 42.3738 37.5725 41.8792C44.4573 41.0514 51.1158 38.6816 57.9604 37.5169C61.7426 36.8735 65.6239 36.5852 69.2049 35.0884C73.15 33.4361 76.4929 30.4087 80.241 28.2567C83.9892 26.105 88.6174 24.878 92.3629 27.033C83.6003 29.9617 77.1988 38.2082 69.1486 43.0391C64.6639 45.7305 59.7136 47.3273 55.1763 49.8985C52.1298 51.6249 49.2141 53.8129 45.8678 54.6046C42.9213 55.2983 39.8687 54.8518 36.8589 54.8782C29.286 54.964 21.9803 57.9978 16.215 63.4507C23.5827 62.2788 30.9501 61.1082 38.3173 59.9387C41.1027 59.3856 43.9321 59.1553 46.7603 59.2512C49.0246 59.4139 51.2721 59.9942 53.5356 59.8422C61.7155 59.299 67.784 49.588 75.9772 49.6134C76.2832 52.2231 74.3392 54.4187 72.5581 56.1597C67.4148 61.198 62.1179 66.3332 55.6991 69.0239C45.6581 73.2234 34.4088 70.8467 23.8189 72.7611C17.9794 73.8147 11.2078 75.921 6.73357 71.6226C-0.0644474 65.0947 4.31672 53.2796 6.99317 45.9085C8.80407 40.925 12.4495 35.1731 17.9197 37.0622C18.3549 37.2171 18.782 37.3988 19.1989 37.6064Z" fill="black"/>
<path id="Vector_3" d="M37.3476 12.4514C33.1418 13.4997 28.7459 14.8978 24.3729 15.2252C20.3429 15.5271 16.8977 15.7072 13.0629 17.2031C12.4905 17.4253 11.853 17.7423 11.7635 18.2691C11.6684 18.8307 12.2606 19.3101 12.8485 19.5948C16.3241 21.2875 20.6636 20.019 24.6519 19.5948C28.0647 19.2304 31.525 19.5298 34.9619 19.3866C43.4446 19.0373 51.397 16.046 59.5134 13.9494C60.8097 13.6147 62.1931 13.3029 63.5042 13.5949C64.8154 13.8869 65.9482 15.0305 65.5604 16.1189C65.225 16.7764 64.6291 17.3168 63.8734 17.6491C52.58 23.9228 38.2194 25.0617 24.732 23.953C22.6192 23.7781 19.8799 23.8583 19.1491 25.5281C30.8159 29.4338 43.839 29.3865 55.4649 25.3958C58.8827 24.2049 62.6006 22.6523 66.0994 23.6631C66.1919 25.0013 64.2692 25.7003 62.7226 26.0423C55.3344 27.6799 48.1921 30.0139 41.4323 32.9998C42.9194 35.0398 46.5052 34.7598 49.271 34.173C60.3945 31.8137 71.6736 28.4289 79.7831 21.6357C81.5088 20.1903 83.1748 18.2852 82.6772 16.2833C82.2273 14.4808 80.2001 13.3165 78.3372 12.339C74.5672 10.3642 70.797 8.38851 67.027 6.41199C61.0029 3.25616 60.0615 4.83433 54.785 7.27548C49.4878 9.72759 43.1214 11.0111 37.3476 12.4514Z" fill="black"/>
<path id="Vector_4" d="M96.3559 39.2537C96.1182 37.7409 94.6585 34.9887 92.8158 35.6754C92.0899 36.0193 91.4597 36.5486 90.9837 37.2139C87.5962 41.1944 83.4454 43.6296 78.7521 45.7917C75.4887 45.7917 68.5612 49.6247 65.6 51.2262C62.2912 53.0114 59.3189 55.325 55.9564 57.155C54.9754 57.6416 54.0507 58.2431 53.2012 58.9479C52.4416 59.6271 51.8236 60.4755 51.0209 61.1018C48.7912 62.8578 45.6985 62.5807 42.9215 62.2192C42.7334 62.4762 42.6507 62.7998 42.6914 63.1199C42.732 63.44 42.8928 63.7302 43.1384 63.9276C43.6471 64.3025 44.251 64.5133 44.8746 64.5331C50.505 65.1693 56.1951 64.1665 61.3088 61.637C68.3262 58.3005 75.6405 55.6836 83.1472 53.8228C77.9784 61.1298 71.0649 66.9093 63.0891 70.5912C55.0503 74.2833 45.9677 73.9526 37.6879 71.1887C36.6138 70.7569 35.5055 70.425 34.3751 70.1966C33.3595 70.0526 32.3192 70.1635 31.3036 70.0197C28.41 69.6136 26.1017 67.2505 23.2723 66.5037C23.1657 69.5289 25.907 71.7835 28.5165 73.1293C29.9242 73.9298 31.4655 74.4455 33.0581 74.6494C34.0636 74.6272 35.068 74.7274 36.0511 74.9479C38.9589 75.933 40.5393 78.7105 43.7205 79.5444C48.1377 80.7027 53.2435 80.1828 57.6784 79.4269C65.6075 78.0634 73.1862 75.0355 79.9521 70.5282C78.978 74.0458 77.0707 77.2078 74.4487 79.6524C71.8264 82.097 68.5952 83.7255 65.1243 84.3518C63.3379 84.6473 61.5167 84.6658 59.7481 85.0602C56.5347 85.7765 53.6193 87.7094 50.3533 88.0853C46.3335 88.5471 41.7853 86.7093 38.4874 89.1408C43.9998 92.3672 50.1683 94.194 56.4896 94.4721C71.5372 95.1174 86.528 86.1455 93.7641 72.421C94.039 72.0133 94.1697 71.5192 94.1344 71.0228C94.0624 70.7745 93.9406 70.545 93.7772 70.3492C93.6137 70.1533 93.4122 69.9957 93.186 69.8866C90.0931 68.0489 84.8068 69.3627 83.8015 65.8098C83.3048 64.0538 84.4974 62.1909 86.0222 61.2717C87.5473 60.3526 89.3425 60.0987 91.043 59.6186C94.9878 58.5119 98.7195 55.9219 100.431 52.0668C101.023 50.7239 101.326 49.0309 100.463 47.8539C99.8204 46.9725 98.702 46.6232 97.9312 45.8657C96.3064 44.2634 96.7141 41.5444 96.3559 39.2537Z" fill="black"/>
</g>
<g id="Group_3" style="mix-blend-mode:multiply" opacity="0.2">
<path id="Vector_5" d="M57.9259 94.3201C48.1002 94.3289 38.4887 91.4298 30.2864 85.9831C22.0842 80.536 15.6531 72.782 11.793 63.6848C7.93281 54.5873 6.81381 44.5482 8.57517 34.8159C10.3365 25.0834 14.9005 16.0869 21.6995 8.94507C15.9199 12.9523 11.0403 18.1365 7.37627 24.1622C3.71228 30.188 1.34555 36.9211 0.429237 43.9259C-0.487078 50.9307 0.0674225 58.0512 2.05687 64.8268C4.04633 71.602 7.4264 77.8814 11.9784 83.2587C16.5304 88.636 22.1529 92.9911 28.4823 96.0424C34.8115 99.0938 41.7064 100.773 48.7211 100.972C55.7358 101.171 62.7138 99.8855 69.2036 97.1978C75.6937 94.5103 81.5509 90.4808 86.3962 85.3704C78.0342 91.2059 68.1003 94.3289 57.9259 94.3201Z" fill="#222226"/>
</g>
<g id="Group_4" style="mix-blend-mode:overlay" opacity="0.3">
<path id="Vector_6" d="M50.7876 0C43.7014 0.00267353 36.6968 1.5257 30.2407 4.46762C22.9509 13.2276 18.8302 24.2195 18.5529 35.6444C18.2757 47.0695 21.8584 58.2508 28.7148 67.3587C35.5711 76.4669 45.295 82.9619 56.295 85.7813C67.2952 88.6005 78.9201 87.5772 89.2673 82.8782C95.3863 75.5103 99.2912 66.5376 100.524 57.0137C101.756 47.4898 100.265 37.8093 96.2251 29.1086C92.1851 20.408 85.7641 13.0479 77.7158 7.89219C69.6671 2.73646 60.3252 -0.00104371 50.7857 0.000958282L50.7876 0Z" fill="white"/>
</g>
</g>
</g>
<defs>
<linearGradient id="paint0_linear_59_124" x1="0" y1="50.501" x2="101" y2="50.501" gradientUnits="userSpaceOnUse">
<stop stop-color="#6F88A3"/>
<stop offset="0.994" stop-color="#49568B"/>
</linearGradient>
<clipPath id="clip0_59_124">
<rect width="101" height="101" fill="white"/>
</clipPath>
</defs>
</svg>
