<svg width="175" height="108" viewBox="0 0 175 108" fill="none" xmlns="http://www.w3.org/2000/svg">
<g id="Saturn 1" clip-path="url(#clip0_59_48)">
<path id="Vector" d="M89.3389 107.682C117.691 107.682 140.674 83.5768 140.674 53.8412C140.674 24.1055 117.691 0 89.3389 0C60.987 0 38.0035 24.1055 38.0035 53.8412C38.0035 83.5768 60.987 107.682 89.3389 107.682Z" fill="url(#paint0_linear_59_48)"/>
<g id="Group" style="mix-blend-mode:multiply" opacity="0.2">
<path id="Vector_2" d="M70.3794 94.1652C63.5872 89.905 57.8392 84.0345 53.5953 77.0237C49.3515 70.0133 46.7299 62.0568 45.9401 53.7913C45.15 45.5262 46.2141 37.1816 49.0466 29.4253C51.8794 21.6691 56.4018 14.7167 62.2525 9.12469C56.2277 12.9884 51.0387 18.1311 47.0174 24.2232C42.996 30.3152 40.2319 37.2222 38.9015 44.5014C37.571 51.7806 37.704 59.2714 39.2919 66.4934C40.8795 73.7154 43.8873 80.5096 48.1219 86.4401C52.3565 92.3708 57.7245 97.3068 63.8823 100.932C70.0398 104.557 76.851 106.792 83.8792 107.492C90.9074 108.193 97.9972 107.343 104.695 104.999C111.392 102.655 117.549 98.8674 122.771 93.8793C114.892 98.9363 105.847 101.636 96.6129 101.686C87.3789 101.737 78.3074 99.1361 70.3794 94.1652Z" fill="#222226"/>
</g>
<g id="Group_2" style="mix-blend-mode:overlay" opacity="0.3">
<path id="Vector_3" d="M115.895 7.52527C109.658 3.6097 102.691 1.15199 95.4673 0.319709C88.2438 -0.51257 80.9346 0.300152 74.0373 2.70244C65.4898 10.9247 59.8868 21.9757 58.1625 34.0115C56.4386 46.0472 58.6979 58.3398 64.5637 68.838C70.4294 79.3359 79.5469 87.4045 90.3947 91.6975C101.242 95.9902 113.164 96.2471 124.171 92.4262C129.989 86.8232 134.481 79.8702 137.287 72.1215C140.093 64.3732 141.135 56.0435 140.331 47.7971C139.528 39.5506 136.9 31.6154 132.657 24.6241C128.415 17.6329 122.675 11.7791 115.896 7.52956L115.895 7.52527Z" fill="#CCBEBE"/>
</g>
<g id="Group_3">
<mask id="mask0_59_48" style="mask-type:alpha" maskUnits="userSpaceOnUse" x="38" y="0" width="103" height="108">
<g id="mask0_28_5">
<path id="Vector_4" d="M140.674 53.8412C140.674 83.5768 117.691 107.682 89.3389 107.682C60.987 107.682 38.0035 83.5768 38.0035 53.8412C38.0035 24.1055 60.987 0 89.3389 0C117.691 0 140.674 24.1055 140.674 53.8412Z" fill="#C4C4C4"/>
</g>
</mask>
<g mask="url(#mask0_59_48)">
<g id="Group_4" style="mix-blend-mode:multiply">
<path id="Vector_5" d="M108.133 -1.28071C114.915 -1.18844 121.638 -2.40812 128.414 -2.68745C130.434 -2.8859 132.473 -2.65727 134.408 -2.01504C137.932 -0.603228 139.584 2.94969 142 5.6507C148.799 13.2621 161.148 13.7955 171.717 16.0781C182.995 18.4464 193.554 23.6615 202.484 31.2731C194.427 35.2506 184.305 32.8279 176.135 29.0511C167.964 25.2745 160.288 20.1606 151.252 18.6376C145.263 17.6265 138.915 18.2584 133.194 16.3625C128.888 14.9305 125.281 12.1688 121.065 10.5484C109.258 5.9983 94.8515 10.9832 83.1345 6.25105C80.877 5.33724 78.7187 4.06322 76.2568 3.82054C73.7948 3.57786 70.8756 4.8873 70.7104 7.10676C70.7282 7.74539 70.8845 8.37138 71.1677 8.93695C71.4509 9.50252 71.8533 9.99271 72.3443 10.3702C78.9342 16.4295 90.7741 11.2461 99.5959 14.253C102.754 15.3286 105.393 17.4381 108.597 18.3899C114.015 19.9988 120.22 18.0764 125.537 19.9445C128.216 20.8849 130.38 22.6948 132.808 24.0788C139.829 28.0805 148.612 28.3231 156.661 30.2013C172.271 33.8428 185.758 43.8607 201.806 45.328C193.138 50.6606 181.294 48.5711 171.637 44.8528C161.98 41.1344 152.616 35.9154 142.125 35.4402C135.589 35.1432 129.038 36.7372 122.531 36.0724C115.752 35.3885 109.614 32.3298 103.389 29.8285C89.3453 24.2422 74.4765 21.2878 59.4592 21.0997C66.9324 24.2983 74.5837 27.0169 82.3711 29.2407L113.809 38.9439C121.576 41.3453 129.449 43.7581 137.638 44.3055C143.19 44.6771 148.794 44.179 154.322 44.7756C159.894 45.3511 165.297 47.1065 170.205 49.9364C176.355 53.5461 181.427 58.9026 188.448 60.8542C195.364 62.7741 203.882 61.3332 209.061 65.8734C196.409 68.8777 182.625 70.829 170.504 66.3978C164.307 64.1314 158.924 60.3145 152.701 58.1012C146.448 55.878 139.636 55.3688 132.969 54.5623C121.882 53.2212 110.951 50.9967 100.039 48.776C86.2692 45.9741 71.5919 42.7093 62.1078 33.3206C59.9061 31.1417 56.0886 28.5645 53.9769 30.8105C53.4516 31.4293 53.162 32.2301 53.1645 33.0592C52.9646 36.9392 55.9767 40.4505 59.5929 42.5816C63.2093 44.7124 67.4434 45.8044 71.4245 47.3301C79.176 50.3017 86.0356 54.9415 93.8463 57.7842C108.781 63.2191 126.124 61.7112 140.71 67.8577C147.748 70.8242 153.926 75.4968 161.403 77.4052C173.367 80.4578 187.667 76.221 197.728 82.7846C191.816 86.766 183.933 87.2186 176.548 87.5182C165.051 87.9819 152.826 88.2942 142.887 83.0943C137.81 80.44 133.584 76.4383 128.089 74.5728C121.197 72.2346 113.501 73.616 106.166 72.9702C97.8057 72.2346 90.0024 68.8624 81.721 67.5934C76.7046 66.8263 71.4546 66.8149 66.781 65.01C58.0654 61.6455 52.7829 52.6021 43.5382 50.687C47.5231 63.1759 53.877 76.7861 67.3122 81.6229C79.7179 86.0884 94.0955 81.4651 107.031 84.4884C113.188 85.9267 118.669 89.0209 124.378 91.5399C137.4 97.282 151.747 100.07 165.931 102.809C171.841 104.097 177.828 104.957 183.85 105.381C176.154 109.645 166.428 109.083 157.419 108.379C148.15 107.656 138.773 106.914 129.972 104.208C123.318 102.161 117.112 99.0186 110.367 97.2226C95.7363 93.327 79.6192 96.0028 65.1282 91.7079C70.5397 98.9061 82.3205 98.2804 91.3374 101.424C95.0477 102.718 98.3945 104.734 102.028 106.198C105.256 107.422 108.568 108.387 111.935 109.083C126.607 112.401 141.538 114.302 156.54 114.765C149.083 121.555 139.615 125.422 129.748 125.708C115.085 126.239 101.534 119.458 87.9475 114.482C80.1224 111.616 72.0071 109.283 64.6902 105.487C56.5391 101.051 49.1585 95.2046 42.8581 88.1928C31.2567 75.8065 22.0471 61.0019 20.1727 44.9045C19.459 39.7304 19.8546 34.4539 21.3308 29.4607C24.692 18.903 33.8991 10.7962 42.7451 3.21006C49.6418 -2.70514 57.2431 -8.92368 66.7161 -9.92726C74.8494 -10.7842 81.7029 -9.35975 89.1884 -6.7788C95.356 -4.66677 101.354 -1.37297 108.133 -1.28071Z" fill="#D1992A"/>
</g>
</g>
</g>
<path id="Vector_6" d="M174.385 88.5749C178.042 78.8012 164.545 63.1886 140.361 47.9317C140.683 50.8902 140.733 54.1509 140.58 57.1241C148.254 64.0078 151.36 69.9849 149.664 74.5197C145.834 84.7568 115.467 81.8129 81.8383 67.9447C48.2098 54.0762 24.0515 34.5343 27.8829 24.2971C29.8345 19.0785 38.7022 17.306 51.3611 18.6354C53.0908 16.5891 54.9696 14.6871 56.9801 12.9467C27.1607 5.69524 4.50922 6.63957 0.66038 16.9263C-4.80299 31.5325 29.6521 59.4111 77.631 79.1939C125.61 98.9769 168.922 103.177 174.385 88.5749Z" fill="url(#paint1_linear_59_48)"/>
<g id="Group_5" style="mix-blend-mode:multiply">
<path id="Vector_7" d="M149.752 74.1956C150.209 73.6623 151.211 73.628 151.465 72.9616C153.162 68.4259 149.351 62.0663 141.677 55.1826C141.767 53.1395 141.746 51.0925 141.613 49.052C141.177 48.7721 140.803 48.5418 140.361 48.2598C140.683 51.2183 140.726 54.1509 140.573 57.124C148.177 63.942 151.335 69.6676 149.752 74.1956Z" fill="#CCBEBE"/>
</g>
<g id="Group_6" style="mix-blend-mode:multiply">
<path id="Vector_8" d="M28.9865 22.3559C28.9722 22.3946 28.9773 22.4366 28.963 22.4742C32.1592 18.6796 40.3147 17.4739 51.3614 18.6355C53.0912 16.5892 54.9699 14.6872 56.9804 12.9469C56.7162 12.8834 56.4683 12.8318 56.202 12.7683C54.8902 14.0043 53.6435 15.3145 52.4678 16.6931C39.8077 15.3636 30.9391 17.1394 28.9865 22.3559Z" fill="#CCBEBE"/>
</g>
<g id="Group_7" style="mix-blend-mode:multiply">
<path id="Vector_9" d="M78.7365 77.2562C30.7626 57.4712 -3.69754 29.5947 1.76583 14.9907C1.7894 14.9251 1.83345 14.8702 1.85906 14.8068C1.36538 15.451 0.962415 16.1664 0.662512 16.931C-4.80083 31.5372 29.6542 59.4159 77.6329 79.1986C125.372 98.8816 168.49 103.132 174.292 88.7789C165.415 100.74 124.172 95.9958 78.7365 77.2562Z" fill="#CCBEBE"/>
</g>
</g>
<defs>
<linearGradient id="paint0_linear_59_48" x1="38.0035" y1="53.8412" x2="140.674" y2="53.8412" gradientUnits="userSpaceOnUse">
<stop offset="0.285" stop-color="#FCBE33"/>
<stop offset="0.96" stop-color="#FC8A33"/>
</linearGradient>
<linearGradient id="paint1_linear_59_48" x1="0.0908234" y1="52.7542" x2="174.955" y2="52.7542" gradientUnits="userSpaceOnUse">
<stop stop-color="#FFE1A4"/>
<stop offset="1" stop-color="#FEB86F"/>
</linearGradient>
<clipPath id="clip0_59_48">
<rect width="175" height="108" fill="white"/>
</clipPath>
</defs>
</svg>
