<svg width="101" height="101" viewBox="0 0 101 101" fill="none" xmlns="http://www.w3.org/2000/svg">
<g id="Venus 1" clip-path="url(#clip0_59_108)">
<g id="Group">
<path id="Vector" d="M50.5 101C78.3904 101 101 78.3904 101 50.5C101 22.6096 78.3904 0 50.5 0C22.6096 0 0 22.6096 0 50.5C0 78.3904 22.6096 101 50.5 101Z" fill="#FFD0A6"/>
<path id="Vector_2" d="M50.5 101C78.3904 101 101 78.3904 101 50.5C101 22.6096 78.3904 0 50.5 0C22.6096 0 0 22.6096 0 50.5C0 78.3904 22.6096 101 50.5 101Z" fill="url(#paint0_linear_59_108)"/>
<g id="Group_2" style="mix-blend-mode:multiply" opacity="0.5">
<path id="Vector_3" d="M20.6921 19.5536C23.0485 18.5881 26.1439 19.0596 27.4741 21.318C28.4007 22.8918 28.2632 24.9511 27.6044 26.6661C26.8423 28.3535 25.9077 29.9332 24.8199 31.3728C22.6963 34.5599 20.9435 38.1839 20.7581 42.0697C20.5727 45.9556 22.2632 50.1193 25.5634 51.8795C26.6767 52.5355 27.9618 52.7129 29.1815 52.3792C30.0887 52.0075 30.914 51.4176 31.6008 50.6494C35.9507 46.3494 39.7294 41.356 44.6274 37.7681C49.5253 34.1802 56.0537 32.1731 61.513 34.7152C62.1176 34.962 62.6708 35.3479 63.138 35.8486C64.0047 36.8741 64.0943 38.3822 63.9917 39.7486C63.5976 44.3425 61.6491 48.5848 58.5555 51.5838C55.6454 54.4358 50.3772 58.2503 53.7825 62.985C54.528 63.9405 55.5043 64.6269 56.5903 64.9596C57.6763 65.2922 58.8245 65.2564 59.8927 64.8567C61.0824 64.3937 62.0916 63.4932 63.3086 63.1071C68.8126 61.3605 70.4751 69.029 69.9744 73.0879C69.2807 78.726 66.281 83.904 62.3367 87.7073C57.6787 92.1951 51.7441 94.9766 45.6863 96.8729C42.526 97.861 38.3444 98.2364 36.6787 95.2497C35.4964 93.1324 36.3052 90.4549 37.1446 88.1631C38.1062 85.5246 39.0676 82.8849 40.0292 80.244C41.1684 77.117 42.1927 73.2226 40.0691 70.7265C38.4066 68.7666 35.4914 68.6643 33.0796 69.3517C30.6681 70.039 28.4267 71.3565 25.9604 71.7688C16.8139 73.291 6.90395 64.1115 10.9458 54.082C11.3963 52.9684 12.1125 51.9178 12.1479 50.7079C12.2655 46.8849 6.63641 43.846 5.89533 39.7048C5.11136 35.3335 7.53549 31.0241 10.4026 27.7494C13.1671 24.5983 16.8344 21.1331 20.6921 19.5536Z" fill="#FFD0A6"/>
</g>
<g id="Group_3" style="mix-blend-mode:multiply" opacity="0.5">
<path id="Vector_4" d="M64.8053 2.78393C56.3538 2.83755 49.1256 7.62957 40.9462 8.0643C39.3504 8.26491 37.8022 8.80254 36.381 9.64941C35.4723 10.049 34.6239 10.6066 33.8666 11.3023C33.4906 11.6547 33.191 12.1007 32.9914 12.6055C32.7915 13.1103 32.6969 13.6605 32.715 14.2135C32.8075 15.2558 33.4185 16.1246 33.8467 17.0569C35.9552 21.6555 32.7572 26.66 31.7983 31.0885C31.604 31.8104 31.5615 32.5741 31.6739 33.3179C32.0622 35.2297 34.1678 36.1502 35.8484 35.6751C37.529 35.2001 38.8406 33.7492 40.017 32.3066C43.573 27.9438 46.7457 23.0444 51.1105 19.755C55.4753 16.4655 61.5374 15.1507 65.8749 18.4846C69.8317 21.5236 71.2111 27.5281 70.8526 32.9334C70.4943 38.3385 68.7441 43.4821 67.7503 48.7822C67.425 50.5176 67.2245 52.4946 68.166 53.9115C69.8888 56.5017 73.4496 55.0407 76.2994 55.2806C77.9983 55.4837 79.5784 56.3652 80.757 57.7682C81.9355 59.171 82.6358 61.0034 82.7326 62.9379C82.7724 64.7533 82.282 66.6904 82.9957 68.3152C84.0676 70.7521 87.2231 70.8939 89.3459 69.6272C93.2876 67.2726 94.9801 61.9979 96.3402 57.1889C97.3619 53.5789 98.3828 49.9698 99.4026 46.3616C100.109 43.8674 100.823 41.2603 100.449 38.6752C100.068 36.042 98.6114 33.7845 97.0863 31.7532C93.067 26.4049 88.3038 21.838 82.9851 18.2334C79.8118 16.083 76.2651 14.0864 74.4782 10.4137C73.6944 8.8004 73.2912 6.92877 72.2421 5.52292C70.5023 3.19044 67.5002 2.76699 64.8053 2.78393Z" fill="#FFD0A6"/>
</g>
<g id="Group_4" style="mix-blend-mode:multiply" opacity="0.5">
<path id="Vector_5" d="M65.0182 21.8661C64.1153 20.0092 62.6001 18.5266 60.705 18.9667C58.8668 19.3917 58.4633 21.1871 57.7016 23.16C56.404 26.5104 53.9983 25.6034 52.1474 27.8506C51.9244 28.0945 51.7697 28.4184 51.7046 28.7761C51.6397 29.1342 51.6676 29.508 51.7851 29.8449C52.1224 30.6067 53.004 30.7448 53.6733 30.4581C54.313 30.0843 54.9302 29.6547 55.5202 29.1732C56.7139 28.4066 58.1223 28.3609 59.4712 28.3762C60.8201 28.3914 62.2109 28.444 63.4655 27.8319C64.7197 27.22 65.8084 25.7541 65.714 24.1028C65.6274 23.301 65.389 22.535 65.0182 21.8661Z" fill="#FFD0A6"/>
</g>
<g id="Group_5" style="mix-blend-mode:multiply" opacity="0.5">
<path id="Vector_6" d="M31.7581 76.5848C32.8851 76.5706 34.137 76.9228 34.7504 77.9964C35.1379 78.7995 35.2628 79.7321 35.1034 80.6296C35.0024 81.471 34.8131 82.2958 34.5396 83.0862C34.1702 84.1413 33.6981 85.1465 33.132 86.0828C31.9952 88.1295 30.3649 89.7639 28.4345 90.7921C20.1011 94.8171 22.3529 76.7013 31.7581 76.5848Z" fill="#FFD0A6"/>
</g>
<g id="Group_6" style="mix-blend-mode:multiply" opacity="0.2">
<path id="Vector_7" d="M57.1934 95.1444C47.3041 95.1516 37.6305 92.2526 29.375 86.8079C21.1197 81.363 14.6461 73.6125 10.7589 64.519C6.87169 55.4258 5.74225 45.3904 7.51089 35.6608C9.27951 25.9308 13.8683 16.935 20.7069 9.79138C15.0495 13.9229 10.3144 19.1872 6.80307 25.249C3.29178 31.3108 1.08122 38.0375 0.312172 45.0006C-0.456876 51.9637 0.23244 59.0105 2.33621 65.6925C4.43999 72.3745 7.91213 78.5454 12.5315 83.8118C17.1509 89.0785 22.8164 93.3254 29.1672 96.2824C35.518 99.2392 42.4149 100.841 49.4188 100.986C56.4226 101.132 63.3799 99.8169 69.8479 97.1257C76.3159 94.4348 82.1523 90.4263 86.9862 85.3557C78.3545 91.7147 67.9145 95.145 57.1934 95.1444Z" fill="#222226"/>
</g>
<g id="Group_7" style="mix-blend-mode:overlay" opacity="0.2">
<path id="Vector_8" d="M50.4997 0.00272086C43.2062 0.00754679 36.0014 1.60122 29.3865 4.6729C21.7111 13.3454 17.2545 24.3955 16.7655 35.9664C16.2765 47.5373 19.7849 58.9241 26.7012 68.2132C33.6176 77.5025 43.5204 84.1282 54.7457 86.977C65.9711 89.8259 77.8351 88.7245 88.3442 83.8575C94.7816 76.5778 98.9795 67.5933 100.432 57.9844C101.885 48.3755 100.531 38.5515 96.5337 29.694C92.5359 20.8362 86.0647 13.3218 77.8978 8.05453C69.7312 2.78725 60.2167 -0.00877596 50.4987 0.00272086H50.4997Z" fill="white"/>
</g>
</g>
</g>
<defs>
<linearGradient id="paint0_linear_59_108" x1="-0.505" y1="47.874" x2="129.28" y2="54.54" gradientUnits="userSpaceOnUse">
<stop stop-color="#FFD0A6"/>
<stop offset="0.993" stop-color="#FF77A6"/>
</linearGradient>
<clipPath id="clip0_59_108">
<rect width="101" height="101" fill="white"/>
</clipPath>
</defs>
</svg>
