<svg width="101" height="101" viewBox="0 0 101 101" fill="none" xmlns="http://www.w3.org/2000/svg">
<g id="Earth 1" clip-path="url(#clip0_59_94)">
<g id="Group">
<path id="Vector" d="M50.5 101C78.3904 101 101 78.3903 101 50.4999C101 22.6095 78.3904 -0.00012207 50.5 -0.00012207C22.6096 -0.00012207 0 22.6095 0 50.4999C0 78.3903 22.6096 101 50.5 101Z" fill="url(#paint0_linear_59_94)"/>
<g id="Group_2" style="mix-blend-mode:multiply">
<path id="Vector_2" d="M32.0502 49.1026C32.1122 49.1646 32.1744 49.2239 32.2384 49.2806C33.175 49.9496 34.2318 50.2809 35.2998 50.2403C35.9767 50.3897 36.6726 50.2336 37.2722 49.7981C37.6228 49.353 37.8707 48.7884 37.9877 48.169C38.1049 47.5494 38.0863 46.8998 37.9345 46.2933C37.6153 45.0832 37.4216 43.8225 37.3591 42.5456C37.6573 40.609 38.4486 38.8599 39.6048 37.5819C40.6288 36.2409 41.2784 34.4913 41.4491 32.6129C41.5113 31.0599 40.4141 29.2347 40.7971 27.7761C41.0267 26.9053 41.8525 26.5062 42.3286 25.7971C43.2974 24.3493 42.4694 22.0413 41.1365 21.1058C39.7116 20.349 38.19 19.9502 36.6513 19.9303C36.0541 19.9369 35.4635 19.7689 34.9229 19.4385C34.3825 19.1081 33.9057 18.6238 33.528 18.0214C33.3667 17.5017 33.17 17.0018 32.9401 16.5277C32.1433 15.3171 30.4978 15.9885 29.5518 17.0319C26.5528 20.3293 22.0448 21.6882 19.2693 16.889C18.8863 16.2257 18.5386 15.4412 17.9508 15.1419C17.0919 14.7078 16.1811 15.5032 15.4546 16.2581C11.3378 20.5369 7.22517 22.3029 5.86326 29.7846C5.32113 32.6471 5.36611 35.6445 5.99366 38.477C6.47182 40.0548 6.85854 41.677 7.15064 43.3301C7.33279 44.9477 7.12789 46.6302 7.42387 48.2209C7.71986 49.8117 8.81475 51.362 10.0152 50.9981C11.7207 50.4776 12.1119 47.2881 13.5649 46.172C14.7136 45.2876 17.899 44.6028 18.7394 46.3956C19.0185 47.3872 19.0844 48.4595 18.9298 49.4962C18.9307 50.4429 19.1195 51.373 19.4778 52.1962C19.8361 53.0197 20.3518 53.7085 20.9748 54.1956C21.4135 54.5245 21.9351 54.7861 22.1628 55.3873C22.2537 55.7432 22.2784 56.1221 22.2349 56.493C22.1913 56.8638 22.0809 57.2157 21.9124 57.5201C20.9106 59.8602 18.9733 60.6556 17.9508 62.8207C16.295 66.3255 17.6258 71.0412 19.6066 74.2471C21.5874 77.4526 24.2015 80.0516 25.5572 83.786C26.0726 85.7007 26.7017 87.5604 27.4388 89.3482C27.8157 90.2206 28.4164 90.892 29.1353 91.245C29.8545 91.5982 30.6461 91.61 31.3711 91.2784C33.2341 89.9897 32.8202 86.3903 32.9898 83.6027C33.3685 77.5606 37.7275 72.8854 37.9117 66.8297C38.022 65.6613 37.8399 64.4776 37.3923 63.4545C36.945 62.4317 36.2561 61.6239 35.4281 61.1518C34.6002 60.8552 33.5506 60.9549 33.1203 59.9788C32.8492 59.3696 32.9651 58.5931 32.8285 57.911C32.4351 55.9535 28.7653 54.6918 27.387 54.4732C26.7142 54.3656 25.9381 54.2576 25.5717 53.4921C25.3647 53.0363 25.3523 52.4404 25.1205 52.0009C24.6921 51.1921 23.6862 51.23 23.2846 50.3996C23.1234 49.99 23.0572 49.528 23.0942 49.0703C23.1273 46.7032 24.2864 44.5704 26.2217 45.5652C26.82 45.9818 27.4553 46.3005 28.1134 46.5143C28.5811 46.5952 29.0636 46.4739 29.5271 46.5979C30.5743 46.8729 31.1973 48.2452 32.0502 49.1026Z" fill="#FFD885"/>
</g>
<g id="Group_3" style="mix-blend-mode:multiply">
<path id="Vector_3" d="M74.8782 14.6698C73.6689 14.37 72.4316 14.3109 71.2085 14.4945C70.5118 14.6619 69.8056 14.7521 69.0973 14.7641C68.4395 14.6705 67.787 14.5219 67.1435 14.3192C63.7637 13.5482 62.6251 15.6889 60.2967 17.7514C58.167 19.6387 55.47 18.3554 53.2015 19.787C52.2396 20.3791 51.4733 21.4021 51.0428 22.6692C50.5067 24.4109 51.3035 25.7456 50.7921 27.3553C50.42 28.166 50.1726 29.0635 50.0636 29.9973C50.1114 30.393 50.1114 30.796 50.0636 31.1917C49.9469 31.5487 49.7497 31.8514 49.4985 32.0598C48.1656 33.3811 46.3816 34.6374 46.3359 36.8186C46.3173 37.7596 46.6567 38.6547 46.7024 39.5931C46.7768 41.1648 46.0379 42.8283 46.5679 44.2466C46.7867 44.7112 47.0878 45.1006 47.4464 45.3822C47.8046 45.6638 48.2097 45.8289 48.6273 45.8642C50.1053 45.9986 51.5887 45.7333 52.9841 45.0851C54.2591 44.6159 55.7161 43.931 56.1281 42.2918C56.509 40.7875 55.8424 38.938 56.5422 37.641C57.4796 35.9101 61.3378 35.0743 61.2259 38.3205C61.2033 38.9836 60.9591 39.6685 61.1536 40.2833C61.3176 40.6574 61.5356 40.9868 61.7953 41.2537C62.199 41.8138 62.4542 42.528 62.5227 43.2911C62.5913 44.0542 62.4698 44.8259 62.1759 45.4923C60.2864 49.5633 55.588 49.9381 54.0169 54.7669C52.0195 60.906 53.4311 73.2328 58.1316 77.0291C58.3995 77.2044 58.6379 77.4473 58.8333 77.7436C59.0534 78.297 59.1044 78.9385 58.976 79.5391C58.685 82.0556 58.394 84.5656 58.1027 87.0695C57.962 88.2719 57.9081 89.7468 58.6802 90.4316C59.034 90.6438 59.4215 90.7448 59.8109 90.7261C60.2003 90.7074 60.5809 90.5695 60.9216 90.3237C64.7849 88.6254 68.2417 85.6454 70.952 81.6773C73.8249 77.6006 74.0173 74.2169 75.787 69.5041C76.4264 67.8028 77.7304 66.6299 78.3205 64.899C78.793 63.0032 78.8191 60.9664 78.3949 59.0511L77.7179 54.2734C77.6552 52.982 77.2233 51.7679 76.5072 50.8709C75.7909 50.1914 74.6919 50.0891 74.3153 49.0457C74.1662 48.6358 74.1683 48.1533 74.007 47.7517C73.7273 47.0532 73.0671 46.8186 72.527 46.4681C71.3182 45.6889 71.6619 44.1549 72.0324 42.8337C72.2512 41.9354 72.6692 41.1415 73.234 40.5524C73.7986 39.9632 74.4846 39.6049 75.2054 39.5228C77.7347 39.5012 78.9743 43.5671 81.1415 45.2684C82.1672 45.962 83.2846 46.3965 84.4344 46.549C88.8327 47.4954 94.4834 49.105 98.5505 45.5163C99.1214 44.9333 99.5265 44.1183 99.7016 43.2011C99.8768 42.2838 99.8117 41.3168 99.5169 40.453C98.2544 35.6648 94.4355 33.0845 92.6702 28.7006C91.7014 26.2956 91.745 25.023 89.9793 23.4727C87.7711 21.7778 85.4907 20.2475 83.1491 18.8892C80.564 16.9675 77.7777 15.5461 74.8782 14.6698Z" fill="#FFD885"/>
</g>
<g id="Group_4" style="mix-blend-mode:multiply" opacity="0.2">
<path id="Vector_4" d="M57.3653 95.7862C47.1481 95.7961 37.1696 92.6969 28.7539 86.9C20.3384 81.103 13.8836 72.8824 10.2463 63.3291C6.60904 53.7758 5.96134 43.3415 8.38909 33.4112C10.8169 23.4811 16.2054 14.5244 23.8393 7.72986C17.8944 11.4175 12.7818 16.3031 8.82705 22.0758C4.87232 27.8484 2.16202 34.3819 0.86876 41.2598C-0.424502 48.138 -0.27242 55.2101 1.31528 62.026C2.90298 68.8421 5.89152 75.2527 10.0907 80.8499C14.2899 86.4472 19.6078 91.1081 25.7058 94.5365C31.8038 97.9649 38.5482 100.085 45.5101 100.763C52.4719 101.441 59.4983 100.661 66.1425 98.4726C72.7864 96.2842 78.9023 92.7361 84.1008 88.0535C76.0976 93.1059 66.8282 95.787 57.3653 95.7862Z" fill="#222226"/>
</g>
<g id="Group_5" style="mix-blend-mode:overlay" opacity="0.2">
<path id="Vector_5" d="M50.5776 -5.48525e-05C45.5497 -0.00196911 40.5499 0.748689 35.7439 2.22698C30.3545 5.93292 25.81 10.7386 22.4097 16.3279C19.0094 21.9172 16.8302 28.1634 16.0156 34.656C15.2009 41.1483 15.7691 47.7398 17.683 53.9967C19.5968 60.2536 22.8129 66.0341 27.1196 70.9583C31.4264 75.8822 36.7263 79.8383 42.6704 82.5658C48.6148 85.2936 55.0687 86.7311 61.6082 86.784C68.1474 86.8369 74.6239 85.5039 80.6116 82.8728C86.599 80.2417 91.9621 76.3719 96.3479 71.518C99.8994 63.837 101.459 55.3842 100.883 46.9403C100.307 38.4967 97.6144 30.3341 93.0532 23.2069C88.492 16.0796 82.2092 10.2172 74.7855 6.16116C67.3617 2.10509 59.0361 -0.0138798 50.5776 -5.48525e-05Z" fill="white"/>
</g>
</g>
</g>
<defs>
<linearGradient id="paint0_linear_59_94" x1="21.311" y1="15.0489" x2="84.8401" y2="92.1118" gradientUnits="userSpaceOnUse">
<stop stop-color="#7FC8EF"/>
<stop offset="0.891" stop-color="#5895FF"/>
</linearGradient>
<clipPath id="clip0_59_94">
<rect width="101" height="101" fill="white"/>
</clipPath>
</defs>
</svg>
