<svg width="101" height="101" viewBox="0 0 101 101" fill="none" xmlns="http://www.w3.org/2000/svg">
<g clip-path="url(#clip0_47_34)">
<path d="M50.5 101C78.3904 101 101 78.3901 101 50.5C101 22.6096 78.3904 0 50.5 0C22.6096 0 0 22.6096 0 50.5C0 78.3901 22.6096 101 50.5 101Z" fill="url(#paint0_linear_47_34)"/>
<path opacity="0.2" d="M57.5215 95.869C29.7061 95.869 7.02168 73.1845 7.02168 45.369C7.02168 30.2459 13.773 16.7434 24.3051 7.2915C9.7222 16.2032 0.000305176 32.1364 0.000305176 50.5C0.000305176 78.3155 22.6848 101 50.5002 101C63.1927 101 74.805 96.139 83.7167 88.5776C75.8852 93.1684 66.9735 95.869 57.5215 95.869Z" fill="#222226"/>
<path opacity="0.2" d="M50.5003 0C42.6688 0 35.6472 1.89037 28.8959 4.86095C21.3345 13.7727 16.7436 25.1149 16.7436 37.8073C16.7436 65.6228 39.428 88.3073 67.2434 88.3073C75.0752 88.3073 82.0965 86.4171 88.8479 83.4462C96.4093 74.5345 101 63.1924 101 50.5C101 22.6845 78.3157 0 50.5003 0Z" fill="white"/>
<mask id="mask0_47_34" style="mask-type:alpha" maskUnits="userSpaceOnUse" x="0" y="0" width="101" height="101">
<path d="M50.4442 100.888C78.3037 100.888 100.888 78.3035 100.888 50.444C100.888 22.5846 78.3037 0 50.4442 0C22.5846 0 0 22.5846 0 50.444C0 78.3035 22.5846 100.888 50.4442 100.888Z" fill="#C4C4C4"/>
</mask>
<g mask="url(#mask0_47_34)">
<path opacity="0.4" d="M36.89 -9.68757C52.8232 -11.0378 68.7563 -14.0084 83.6091 -6.4469C86.5798 -4.82659 89.5503 -2.93624 92.521 -1.04586C96.5717 1.65467 100.623 4.35519 102.513 8.67605C104.403 12.9969 103.053 19.2081 98.4622 20.5584C96.3016 21.0985 93.8712 20.8284 91.4409 21.3685C89.5503 21.9086 87.93 23.2589 86.0397 23.799C84.9596 24.0691 83.8792 23.799 83.069 23.799C80.6386 23.799 77.938 25.9594 75.7776 24.8792C74.6975 24.3391 74.1574 22.9889 74.9675 22.1787C76.0477 21.0985 78.4783 21.0985 79.8285 20.0183C81.1787 18.9381 83.3391 17.5878 84.4192 16.2375C85.4997 15.1573 85.4997 13.537 85.2296 12.1867C84.1492 6.51563 78.2083 5.43541 73.3472 4.62526C68.2162 3.8151 62.545 1.92472 58.2241 5.16535C57.684 5.43541 57.1439 5.97551 57.1439 6.51563C56.8739 7.86589 58.4944 8.67605 59.8446 9.21615C62.8151 10.5664 65.7858 11.9167 68.4862 13.8071C69.2963 14.3472 69.8364 14.8873 70.1065 15.6974C70.6466 17.5878 67.9461 18.9381 65.7858 18.9381C60.6547 18.9381 55.5237 17.5878 51.4728 14.6172C49.0424 12.9969 46.342 10.5664 43.3712 10.8365C41.2109 11.1065 39.3206 12.7268 37.16 13.537C31.7589 15.4274 26.0879 12.1867 21.497 8.67605C20.9569 8.13595 20.1467 7.59583 19.6066 7.59583C19.0665 7.59583 18.5264 7.59583 17.9863 7.86589C16.096 8.40599 13.9355 9.75627 13.6655 11.9167C12.8553 15.9675 20.9569 18.1279 23.1173 20.8284C24.7376 22.9889 26.358 25.6894 28.7884 25.9594C30.1386 26.2295 31.4889 25.6894 32.8393 25.4193C34.7296 25.1493 36.3499 25.6894 38.2402 25.9594C45.5318 27.5797 53.0933 29.4701 60.3847 31.0904C64.1653 31.9005 67.9461 32.7107 71.727 32.7107C82.799 32.7107 93.8712 25.6894 104.403 29.2002C104.673 32.7107 100.623 34.3312 97.1117 35.1413C87.66 37.0316 77.938 39.192 68.4862 41.0825C64.7054 41.8926 60.9248 42.7027 57.1439 42.4328C50.6626 42.1626 44.4514 38.6518 37.7001 38.922C33.3794 39.192 29.0585 40.8123 24.7376 41.3524C16.9061 42.4328 9.07456 39.7322 0.972979 38.3819C-1.72755 38.1119 -4.42807 37.8417 -6.85856 38.922C-9.28904 40.0021 -10.9094 43.2429 -9.82913 45.6733C-8.74893 47.8338 -6.04841 48.6439 -3.88796 48.6439C-1.4575 48.6439 0.972979 48.6439 3.1334 49.454C4.75373 50.2641 6.10399 51.6145 7.7243 52.6948C9.07456 53.5049 10.6949 53.7749 12.3152 53.7749C17.7163 54.0449 23.1173 52.4246 28.7884 52.1546C39.8607 51.8844 50.6626 58.0958 61.1948 55.6654C62.545 55.3952 64.7054 55.1252 64.9757 56.7455C65.2457 57.8258 63.8952 58.636 62.8151 59.1759C48.5023 64.0369 33.1094 64.8471 17.9863 66.7375C17.1762 66.7375 16.0959 67.0075 15.5558 67.5477C14.2056 68.6278 14.4756 71.0584 15.5558 72.4085C16.9061 73.7588 18.7965 74.029 20.6869 74.029C25.5478 74.299 30.4087 72.4085 34.9997 73.2186C37.43 73.4888 39.8607 74.299 42.2911 75.1091C57.684 78.8898 73.8873 71.3284 89.8203 72.1385C96.3016 72.4085 103.323 74.029 108.724 70.5182C109.804 69.7081 110.614 68.898 110.614 67.8176C110.884 64.8471 107.104 63.4967 104.403 63.4967C99.0023 63.2268 93.8712 63.4967 88.4701 64.0369C87.66 64.3069 86.3098 64.3069 84.9596 64.0369C83.8792 63.4967 82.799 62.6866 81.9889 61.8765C80.0986 59.986 78.2083 58.3657 76.3177 56.4755C79.0184 54.0449 83.069 54.8553 86.5798 55.1252C95.7615 55.6654 104.403 49.7242 113.315 47.8338C116.826 47.0236 121.147 47.2936 123.037 50.2641C124.387 52.6948 123.577 55.6654 123.847 58.636C124.387 63.2268 128.168 67.0075 127.898 71.3284C127.628 73.7588 126.278 75.9192 124.387 77.8097C117.096 86.1812 105.754 90.7721 94.6814 89.692C89.2803 89.1518 83.8792 87.5315 78.4783 87.2616C72.8072 86.9914 66.866 88.3417 61.7349 91.0423C61.4649 91.3123 60.9248 91.5822 60.6547 91.8524C60.3847 92.3926 60.6547 92.9325 60.9248 93.4727C63.0851 98.6037 68.2162 102.384 73.6173 103.195C75.2375 103.465 76.8578 103.465 78.4783 104.005C80.0986 104.545 80.9087 106.435 80.3686 108.056C79.8285 109.136 78.4783 109.406 77.3979 109.676C71.4567 111.026 65.5158 111.836 59.5746 112.376C54.7135 112.646 48.7724 111.836 47.1521 107.245C46.342 105.085 46.8821 102.384 47.6922 100.224C48.5023 98.0635 49.3124 95.6331 49.0424 93.2027C48.7723 90.7721 46.612 88.3417 44.4514 88.6116C41.4809 88.8819 40.4008 92.3926 37.9701 94.0129C35.2697 95.9031 31.4889 94.823 28.2483 95.093C25.0077 95.3632 22.0371 96.7132 19.0665 97.5234C16.0959 98.3338 12.3152 98.6037 9.88472 96.4433C9.07456 95.6331 8.26441 94.2828 9.07456 93.2027C9.34463 92.9325 9.88472 92.6626 10.4248 92.3926C16.9061 90.7721 23.1173 88.8819 29.5986 87.2616C31.2188 86.7214 33.3794 85.3711 32.2992 83.7509C32.0292 83.2107 31.2188 82.9407 30.6787 82.9407C25.2778 81.5904 19.8767 82.9407 14.2056 83.4806C8.53445 84.0208 2.5933 83.4806 -1.18745 79.43C-4.69814 75.379 -4.69814 68.898 -8.20882 64.8471C-10.3692 62.1464 -13.8799 60.7964 -16.3104 58.0958C-20.6313 53.5049 -20.3612 46.4834 -19.8211 40.0021C-19.281 34.6012 -18.4708 28.93 -14.6901 25.4193C-12.2596 23.799 -8.47886 22.4487 -6.85856 19.2081C-6.31845 17.8579 -6.31845 16.5076 -6.04841 15.1573C-4.69814 6.24557 2.5933 -0.775805 10.6949 -4.55655C18.7965 -8.06725 27.9783 -8.87741 36.89 -9.68757Z" fill="#545FFE"/>
</g>
</g>
<defs>
<linearGradient id="paint0_linear_47_34" x1="-0.156901" y1="50.5613" x2="100.906" y2="50.5613" gradientUnits="userSpaceOnUse">
<stop stop-color="#6C72FF"/>
<stop offset="1" stop-color="#4354FF"/>
</linearGradient>
<clipPath id="clip0_47_34">
<rect width="101" height="101" fill="white"/>
</clipPath>
</defs>
</svg>
